<?xml version="1.0" encoding="UTF-8"?>
<svg width="14px" height="14px" viewBox="0 0 14 14" version="1.1" xmlns="http://www.w3.org/2000/svg" xmlns:xlink="http://www.w3.org/1999/xlink">
    <!-- Generator: Sketch 59.1 (86144) - https://sketch.com -->
    <title>活动审批列表icon</title>
    <desc>Created with Sketch.</desc>
    <defs>
        <rect id="path-1" x="0" y="0" width="14" height="14"></rect>
    </defs>
    <g id="Page-2" stroke="none" stroke-width="1" fill="none" fill-rule="evenodd">
        <g id="00-01大众e线-首页" transform="translate(-24.000000, -524.000000)">
            <g id="侧边栏">
                <g id="编组-18" transform="translate(24.000000, 88.000000)">
                    <g id="编组-16备份-2" transform="translate(0.000000, 432.000000)">
                        <g id="审批列表未点击" transform="translate(0.000000, 4.000000)">
                            <mask id="mask-2" fill="white">
                                <use xlink:href="#path-1"></use>
                            </mask>
                            <g id="Mask"></g>
                            <path d="M13.2553191,13.2583956 L7.76441776,13.2777778 L7.74468085,11.9972363 L13.2553191,11.9777778 L13.2553191,13.2583956 Z M10.4999607,10.1 L11.4680851,11.2555556 L9.53191489,11.2555556 L10.4999607,10.1 Z M10.5,7.64444444 C10.9518029,7.64444444 11.3191489,8.00084957 11.3191489,8.43874363 C11.3191489,8.87663769 10.9518029,9.23333333 10.5,9.23333333 C10.048272,9.23333333 9.68085106,8.8769282 9.68085106,8.43874363 C9.68085106,8.00055906 10.048272,7.64444444 10.5,7.64444444 L10.5,7.64444444 Z M13.2164386,11.2234978 L12.411426,11.2234978 L11.2127992,9.75747344 C11.7303564,9.48796822 12.0865973,8.96916081 12.0865973,8.36676496 C12.0865973,7.49053064 11.3416248,6.77777778 10.4253358,6.77777778 C9.50910571,6.77777778 8.7641528,7.49053064 8.7641528,8.36676496 C8.7641528,8.96916081 9.1203937,9.48789318 9.63795088,9.75747344 L8.43932415,11.2234978 L7.63423303,11.2234978 C7.20248113,11.2234978 6.85106383,11.55969 6.85106383,11.9728112 L6.85106383,13.2506678 C6.85106383,13.664108 7.2021674,14 7.63423303,14 L13.2168112,14 C13.6485827,14 14,13.6638079 14,13.2506678 L14,11.9727362 C13.9996863,11.55969 13.648269,11.2234978 13.2164386,11.2234978 L13.2164386,11.2234978 Z M2.08510638,9.66666667 L6.70212766,9.66666667 L6.70212766,8.94444444 L2.08510638,8.94444444 L2.08510638,9.66666667 Z M1.93617021,7.35555556 L7.59574468,7.35555556 L7.59574468,6.63333333 L1.93617021,6.63333333 L1.93617021,7.35555556 Z M2.08510638,5.33333333 L9.9787234,5.33333333 L9.9787234,4.61111111 L2.08510638,4.61111111 L2.08510638,5.33333333 Z M5.95768688,13.4222222 L1.53425036,13.4222222 C0.688059865,13.4222222 0,12.7567054 0,11.9386135 L0,2.48381565 C0,1.66544159 0.688448918,1 1.53425036,1 L10.6784378,1 C11.5243365,1 12.212766,1.66579904 12.212766,2.48381565 L12.212766,5.55388482 L11.4159657,5.55388482 L11.4159657,2.48381565 C11.4159657,2.09050696 11.0851344,1.77060736 10.6784378,1.77060736 L1.53425036,1.77060736 C1.12757316,1.77060736 0.796800208,2.09050696 0.796800208,2.48381565 L0.796800208,11.9383313 C0.796800208,12.331339 1.12757316,12.6512386 1.53425036,12.6512386 L5.95768688,12.6512386 L5.95768688,13.4222222 Z" id="Fill-1" fill="#FEFEFE" mask="url(#mask-2)"></path>
                        </g>
                    </g>
                </g>
            </g>
        </g>
    </g>
</svg>