<?xml version="1.0" encoding="UTF-8"?>
<svg width="14px" height="14px" viewBox="0 0 14 14" version="1.1" xmlns="http://www.w3.org/2000/svg" xmlns:xlink="http://www.w3.org/1999/xlink">
    <!-- Generator: Sketch 59.1 (86144) - https://sketch.com -->
    <title>经销商销售报表icon</title>
    <desc>Created with Sketch.</desc>
    <g id="Page-2" stroke="none" stroke-width="1" fill="none" fill-rule="evenodd">
        <g id="00-01大众e线-首页" transform="translate(-24.000000, -254.000000)">
            <g id="侧边栏">
                <g id="编组-18" transform="translate(24.000000, 88.000000)">
                    <g id="编组-13" transform="translate(0.000000, 162.000000)">
                        <g id="经销商销售报表icon" transform="translate(0.000000, 4.000000)">
                            <rect id="矩形" x="0" y="0" width="14" height="14"></rect>
                            <g transform="translate(0.000000, 0.500000)" fill="#FFFFFF" fill-rule="nonzero" id="Shape">
                                <path d="M12.4727273,12.6 C12.1545455,12.6 11.9,12.3454545 11.9,12.0272727 L11.9,5.53636364 C11.9,5.21818182 12.1545455,4.96363636 12.4727273,4.96363636 C12.7909091,4.96363636 13.0454545,5.21818182 13.0454545,5.53636364 L13.0454545,11.9636364 C13.0454545,12.3454545 12.7909091,12.6 12.4727273,12.6 Z M8.65454545,12.6 C8.33636364,12.6 8.08181818,12.3454545 8.08181818,12.0272727 L8.08181818,7.95454545 C8.08181818,7.63636364 8.33636364,7.38181818 8.65454545,7.38181818 C8.97272727,7.38181818 9.22727273,7.63636364 9.22727273,7.95454545 L9.22727273,12.0272727 C9.22727273,12.1545455 9.16363636,12.3454545 9.03636364,12.4090909 C8.97272727,12.5363636 8.84545455,12.6 8.65454545,12.6 Z M4.9,12.6 C4.58181818,12.6 4.32727273,12.3454545 4.32727273,12.0272727 L4.32727273,5.53636364 C4.32727273,5.21818182 4.58181818,4.96363636 4.9,4.96363636 C5.21818182,4.96363636 5.47272727,5.21818182 5.47272727,5.53636364 L5.47272727,11.9636364 C5.47272727,12.3454545 5.21818182,12.6 4.9,12.6 Z M1.08181818,12.6 C0.763636364,12.6 0.509090909,12.3454545 0.509090909,12.0272727 L0.509090909,7.95454545 C0.509090909,7.63636364 0.763636364,7.38181818 1.08181818,7.38181818 C1.4,7.38181818 1.65454545,7.63636364 1.65454545,7.95454545 L1.65454545,12.0272727 C1.65454545,12.3454545 1.4,12.6 1.08181818,12.6 Z"></path>
                                <path d="M1.08181818,5.47272727 C0.954545455,5.47272727 0.763636364,5.40909091 0.636363636,5.28181818 C0.509090909,5.15454545 0.445454545,5.02727273 0.445454545,4.83636364 C0.445454545,4.70909091 0.509090909,4.51818182 0.636363636,4.45454545 L4.45454545,0.890909091 C4.58181818,0.763636364 4.70909091,0.7 4.83636364,0.7 C4.96363636,0.7 5.15454545,0.763636364 5.21818182,0.890909091 L8.59090909,4.13636364 L12.0909091,0.890909091 C12.2181818,0.763636364 12.3454545,0.7 12.4727273,0.7 C12.6636364,0.7 12.7909091,0.763636364 12.9181818,0.890909091 C13.0454545,1.01818182 13.1090909,1.14545455 13.1090909,1.33636364 C13.1090909,1.46363636 13.0454545,1.65454545 12.9181818,1.71818182 L9.1,5.34545455 C8.97272727,5.47272727 8.84545455,5.53636364 8.71818182,5.53636364 C8.59090909,5.53636364 8.4,5.47272727 8.33636364,5.34545455 L4.96363636,2.16363636 L1.59090909,5.34545455 C1.4,5.40909091 1.27272727,5.47272727 1.08181818,5.47272727 Z"></path>
                                <path d="M12.9181818,3.18181818 C12.6,3.18181818 12.3454545,2.92727273 12.3454545,2.60909091 L12.3454545,1.33636364 L11.2,1.33636364 C10.8818182,1.33636364 10.6272727,1.08181818 10.6272727,0.763636364 C10.6272727,0.445454545 10.8818182,0.190909091 11.2,0.190909091 L12.9181818,0.190909091 C13.2363636,0.190909091 13.4909091,0.445454545 13.4909091,0.763636364 L13.4909091,2.60909091 C13.4909091,2.92727273 13.2363636,3.18181818 12.9181818,3.18181818 Z"></path>
                            </g>
                        </g>
                    </g>
                </g>
            </g>
        </g>
    </g>
</svg>