<?xml version="1.0" encoding="UTF-8"?>
<svg width="14px" height="14px" viewBox="0 0 14 14" version="1.1" xmlns="http://www.w3.org/2000/svg" xmlns:xlink="http://www.w3.org/1999/xlink">
    <!-- Generator: Sketch 59.1 (86144) - https://sketch.com -->
    <title>新能源额度补贴材料icon</title>
    <desc>Created with Sketch.</desc>
    <g id="Page-2" stroke="none" stroke-width="1" fill="none" fill-rule="evenodd">
        <g id="00-01大众e线-首页" transform="translate(-24.000000, -362.000000)" fill="#FFFFFF" fill-rule="nonzero">
            <g id="侧边栏">
                <g id="编组-18" transform="translate(24.000000, 88.000000)">
                    <g id="编组-15" transform="translate(0.000000, 270.000000)">
                        <path d="M13.1121951,9.68741463 L13.1121951,8.04292683 C13.1121951,7.49931707 12.6723902,7.0595122 12.1287805,7.0595122 L6.67902439,7.0595122 L6.33756098,5.9955122 C6.20780488,5.58712195 5.82946341,5.31121951 5.40058537,5.31121951 L0.983414634,5.31121951 C0.439804878,5.31121951 0,5.75102439 0,6.29463415 L0,15.6958049 C0,15.7436098 0.00409756098,15.7914146 0.0109268293,15.8378537 C0.0109268293,15.8392195 0.0109268293,15.8419512 0.0122926829,15.8433171 C0.0150243902,15.8569756 0.0163902439,15.8706341 0.0191219512,15.8842927 C0.0204878049,15.8883902 0.0204878049,15.8924878 0.0218536585,15.8952195 C0.0245853659,15.9061463 0.0273170732,15.918439 0.0300487805,15.9293659 C0.0314146341,15.9361951 0.0341463415,15.9430244 0.0355121951,15.9498537 L0.0396097561,15.9662439 C0.0437073171,15.9812683 0.047804878,15.9949268 0.0532682927,16.0085854 L0.0532682927,16.0099512 C0.103804878,16.1574634 0.188487805,16.2885854 0.299121951,16.395122 L0.301853659,16.3978537 C0.312780488,16.4074146 0.322341463,16.4169756 0.333268293,16.4265366 C0.338731707,16.4306341 0.344195122,16.4360976 0.348292683,16.4401951 C0.353756098,16.4442927 0.357853659,16.4483902 0.363317073,16.4524878 C0.371512195,16.4593171 0.381073171,16.4661463 0.390634146,16.4743415 C0.393365854,16.4757073 0.396097561,16.478439 0.398829268,16.4798049 C0.409756098,16.488 0.42204878,16.4961951 0.43297561,16.5043902 C0.434341463,16.5043902 0.434341463,16.5057561 0.435707317,16.5057561 C0.564097561,16.5918049 0.714341463,16.6505366 0.879609756,16.6669268 C0.882341463,16.6669268 0.883707317,16.6669268 0.886439024,16.6682927 C0.901463415,16.6696585 0.915121951,16.6710244 0.930146341,16.6710244 L0.938341463,16.6710244 C0.953365854,16.6710244 0.968390244,16.6723902 0.983414634,16.6723902 L11.7463415,16.6723902 C12.1970732,16.6723902 12.590439,16.3650732 12.7010732,15.928 L13.9576585,10.9016585 C14.102439,10.3198049 13.6940488,9.75160976 13.1121951,9.68741463 Z M0.983414634,6.29463415 L5.39785366,6.29463415 L5.96058537,8.04292683 L12.1287805,8.04292683 L12.1287805,9.68195122 L2.24,9.68195122 C1.78926829,9.68195122 1.39590244,9.98926829 1.28526829,10.4263415 L0.983414634,11.6392195 L0.983414634,6.29463415 Z M11.7463415,15.6917073 L0.983414634,15.6917073 L2.24,10.6653659 L13.0029268,10.6653659 L11.7463415,15.6917073 Z" id="Shape"></path>
                    </g>
                </g>
            </g>
        </g>
    </g>
</svg>