<?xml version="1.0" encoding="UTF-8"?>
<svg width="14px" height="14px" viewBox="0 0 14 14" version="1.1" xmlns="http://www.w3.org/2000/svg" xmlns:xlink="http://www.w3.org/1999/xlink">
    <!-- Generator: Sketch 59.1 (86144) - https://sketch.com -->
    <title>业务数据下载icon</title>
    <desc>Created with Sketch.</desc>
    <g id="Page-2" stroke="none" stroke-width="1" fill="none" fill-rule="evenodd">
        <g id="00-01大众e线-首页" transform="translate(-24.000000, -308.000000)">
            <g id="侧边栏">
                <g id="编组-18" transform="translate(24.000000, 88.000000)">
                    <g id="编组-14" transform="translate(0.000000, 216.000000)">
                        <g id="业务数据下载icon" transform="translate(0.000000, 4.000000)">
                            <rect id="Rectangle-48-Copy-2" x="0" y="0" width="14" height="14"></rect>
                            <g id="download" transform="translate(0.875000, 0.875000)" fill="#FFFFFF" fill-rule="nonzero">
                                <path d="M5.80371094,9.84785156 C5.8953125,9.93945312 6.01699219,9.9859375 6.13867188,9.9859375 C6.26035156,9.9859375 6.38066406,9.93945312 6.47363281,9.84785156 L8.60507812,7.71640625 C8.78964844,7.53183594 8.78964844,7.23242187 8.60507812,7.04785156 C8.51621094,6.95898437 8.39726562,6.90976562 8.27148438,6.90976562 C8.14570313,6.90976562 8.02675781,6.95898437 7.93789063,7.04785156 L6.61308594,8.37265625 L6.61308594,0.473046875 C6.61308594,0.211914062 6.40117188,-7.10542736e-15 6.14003906,-7.10542736e-15 C5.87890625,-7.10542736e-15 5.66699219,0.211914062 5.66699219,0.473046875 L5.66699219,8.37265625 L4.3421875,7.04785156 C4.15761719,6.86328125 3.85820313,6.86328125 3.675,7.04785156 C3.49042969,7.23242187 3.49042969,7.53183594 3.67363281,7.71640625 L5.80371094,9.84785156 Z M11.7769531,7.88046875 C11.5158203,7.88046875 11.3039063,8.09238281 11.3039063,8.35351562 L11.3039063,11.025 C11.3039063,11.1794922 11.178125,11.3066406 11.0222656,11.3066406 L1.22636719,11.3066406 C1.071875,11.3066406 0.944726562,11.1808594 0.944726562,11.025 L0.944726562,8.35214844 C0.944726562,8.09101562 0.7328125,7.87910156 0.471679688,7.87910156 C0.210546875,7.87910156 0,8.09238281 0,8.35214844 L0,11.3996094 C0,11.8685547 0.381445313,12.2486328 0.849023437,12.2486328 L11.4009766,12.2486328 C11.8699219,12.2486328 12.25,11.8671875 12.25,11.3996094 L12.25,8.35214844 C12.25,8.09238281 12.0380859,7.88046875 11.7769531,7.88046875 Z" id="Shape"></path>
                            </g>
                        </g>
                    </g>
                </g>
            </g>
        </g>
    </g>
</svg>