<?xml version="1.0" encoding="UTF-8"?>
<svg width="14px" height="14px" viewBox="0 0 14 14" version="1.1" xmlns="http://www.w3.org/2000/svg" xmlns:xlink="http://www.w3.org/1999/xlink">
    <!-- Generator: Sketch 59.1 (86144) - https://sketch.com -->
    <title>市场活动列表icon</title>
    <desc>Created with Sketch.</desc>
    <g id="2019.11.25" stroke="none" stroke-width="1" fill="none" fill-rule="evenodd" opacity="0.65">
        <g id="06-01大众e线-全周期宽1280" transform="translate(-24.000000, -470.000000)">
            <g id="侧边栏">
                <g id="编组-18" transform="translate(0.000000, 88.000000)">
                    <g id="编组-16备份" transform="translate(24.000000, 378.000000)">
                        <g id="市场活动列表icon" transform="translate(0.000000, 4.000000)">
                            <rect id="矩形" x="0" y="0" width="14" height="14"></rect>
                            <g id="编组" transform="translate(1.330000, 0.000000)" fill="#FFFFFF" fill-rule="nonzero">
                                <path d="M11.2195822,1.23598846 C11.2195822,0.540336275 10.52393,0.192510199 10.0021909,0.45337976 C9.91523438,0.540336275 9.82827785,0.540336275 9.65436481,0.627292805 C9.2195822,0.888162365 9.30653872,0.888162365 9.13262567,0.975118881 C8.69784307,1.23598844 8.26306046,1.40990149 7.74132133,1.4099015 C7.21958219,1.4099015 6.87175612,1.23598846 6.00219089,0.801205836 L5.91523438,0.801205836 C4.95871264,0.279466701 4.4369735,0.0185971406 3.65436481,0.0185971406 C2.61088655,-0.068359375 1.56740828,0.192510186 0.871756115,0.71424932 L0.871756115,0.45337976 C0.871756115,0.192510199 0.69784307,0.0185971543 0.43697351,0.0185971406 C0.176103949,0.018597127 0.00219089063,0.192510186 0.00219089063,0.45337976 L0.00219089063,13.496858 C0.00219089063,13.7577276 0.176103936,13.9316406 0.43697351,13.9316406 C0.697843084,13.9316406 0.871756115,13.7577276 0.871756115,13.496858 L0.871756115,9.14903192 L1.48045177,9.14903192 C1.65436481,9.14903192 1.82827786,9.06207541 2.08914742,8.97511889 C2.08914742,8.97511889 2.52393002,8.80120585 2.61088655,8.71424932 C3.2195822,8.45337976 3.65436481,8.36642323 4.08914741,8.36642323 C4.69784306,8.36642323 5.04566915,8.54033627 5.74132133,8.88816236 C6.43697351,9.23598845 6.87175612,9.4099015 7.48045177,9.58381454 C9.2195822,9.8446841 11.3065387,9.06207541 11.3065387,7.75772758 L11.3065387,6.36642323 L11.3065387,4.10555366 C11.2195822,2.80120583 11.2195822,1.93164062 11.2195822,1.23598846 Z M10.350017,7.67077106 C10.350017,8.1925102 8.95871264,8.88816236 7.56740828,8.6272928 C6.17610392,8.36642324 5.74132133,7.49685802 4.0021909,7.40990149 C2.26306046,7.32294497 0.784799586,8.97511888 0.784799586,7.93164062 L0.784799586,1.93164062 C0.784799586,1.32294497 2.00219089,0.71424932 3.56740829,0.801205836 C5.13262568,0.888162352 6.00219091,2.27946671 7.65436481,2.27946671 C9.30653872,2.27946671 10.350017,0.975118881 10.350017,1.23598846 L10.350017,7.67077106 L10.350017,7.67077106 Z" id="形状"></path>
                            </g>
                        </g>
                    </g>
                </g>
            </g>
        </g>
    </g>
</svg>