<?xml version="1.0" encoding="UTF-8"?>
<svg width="14px" height="14px" viewBox="0 0 14 14" version="1.1" xmlns="http://www.w3.org/2000/svg" xmlns:xlink="http://www.w3.org/1999/xlink">
    <!-- Generator: Sketch 59.1 (86144) - https://sketch.com -->
    <title>首页icon</title>
    <desc>Created with Sketch.</desc>
    <g id="Page-2" stroke="none" stroke-width="1" fill="none" fill-rule="evenodd">
        <g id="00-01大众e线-首页" transform="translate(-24.000000, -92.000000)" fill="#FFFFFF">
            <g id="侧边栏">
                <g id="编组-18" transform="translate(24.000000, 88.000000)">
                    <g id="编组-7">
                        <g id="首页icon" transform="translate(0.000000, 4.000000)">
                            <path d="M13.56875,8.1140625 L7.7546875,13.709375 C7.3265625,14.096875 6.675,14.096875 6.246875,13.709375 L0.43125,8.1140625 C0.2,7.90625 0.1828125,7.5515625 0.390625,7.3203125 L0.390625,7.3203125 C0.5984375,7.0890625 0.9546875,7.071875 1.184375,7.2796875 L7,12.875 L12.815625,7.2796875 C13.046875,7.071875 13.4015625,7.0890625 13.609375,7.3203125 L13.609375,7.3203125 C13.8171875,7.5515625 13.8,7.90625 13.56875,8.1140625 L13.56875,8.1140625 Z M12.015625,6.0390625 L12.015625,6.0390625 C11.7046875,6.0390625 11.453125,5.7875 11.453125,5.4765625 L11.453125,1.1484375 L9.21875,1.1484375 L9.21875,4.8984375 C9.21875,5.5203125 8.715625,6.0234375 8.09375,6.0234375 L5.90625,6.0234375 C5.284375,6.0234375 4.78125,5.5203125 4.78125,4.8984375 L4.78125,1.1484375 L2.546875,1.1484375 L2.546875,5.4765625 C2.546875,5.7875 2.2953125,6.0390625 1.984375,6.0390625 L1.984375,6.0390625 C1.6734375,6.0390625 1.421875,5.7875 1.421875,5.4765625 L1.421875,1.1484375 C1.421875,0.5265625 1.925,0.0234375 2.546875,0.0234375 L11.453125,0.0234375 C12.075,0.0234375 12.578125,0.5265625 12.578125,1.1484375 L12.578125,5.4765625 C12.578125,5.7875 12.3265625,6.0390625 12.015625,6.0390625 L12.015625,6.0390625 Z M5.90625,4.8984375 L8.09375,4.8984375 L8.09375,1.1484375 L5.90625,1.1484375 L5.90625,4.8984375 L5.90625,4.8984375 Z" id="Shape" transform="translate(7.000000, 7.011719) scale(1, -1) translate(-7.000000, -7.011719) "></path>
                        </g>
                    </g>
                </g>
            </g>
        </g>
    </g>
</svg>