<?xml version="1.0" encoding="UTF-8"?>
<svg width="14px" height="14px" viewBox="0 0 14 14" version="1.1" xmlns="http://www.w3.org/2000/svg" xmlns:xlink="http://www.w3.org/1999/xlink">
    <!-- Generator: Sketch 59.1 (86144) - https://sketch.com -->
    <title>网电业务管理icon</title>
    <desc>Created with Sketch.</desc>
    <g id="Page-2" stroke="none" stroke-width="1" fill="none" fill-rule="evenodd">
        <g id="00-01大众e线-首页" transform="translate(-24.000000, -416.000000)" fill="#FEFEFE">
            <g id="侧边栏">
                <g id="编组-18" transform="translate(24.000000, 88.000000)">
                    <g id="编组-16" transform="translate(0.000000, 324.000000)">
                        <g id="网电业务管理icon" transform="translate(0.000000, 4.000000)">
                            <g id="分组">
                                <path d="M13.2371084,13.2371084 L0.790936024,13.2371084 L0.790936024,8.63791826 L4.63748857,8.63791826 L4.63748857,9.95043695 C4.63748857,10.2129373 4.81254005,10.3879717 5.07502328,10.3879717 L9.01249391,10.3879717 C9.27499423,10.3879717 9.45002863,10.2129373 9.45002863,9.95043695 L9.45002863,8.63791826 L13.2371084,8.63791826 L13.2371084,13.2371084 Z M1.63796098,7.8750267 L3.50002136,7.8750267 L3.50002136,2.51294496 L1.63796098,2.51294496 L1.63796098,7.8750267 Z M12.362039,0.762977006 L12.362039,7.90305408 L8.92497672,7.8750267 C8.75001068,7.8750267 8.57504465,8.04999274 8.57504465,8.31247597 L8.57504465,9.62499466 L5.51248964,9.62499466 L5.51248964,8.31247597 C5.51248964,8.04999274 5.24998932,7.8750267 5.01895144,7.8750267 L4.26291292,7.8750267 L4.26291292,0.762977006 L12.362039,0.762977006 Z M13.5625507,7.8750267 L13.125016,7.8750267 L13.125016,0.437534714 C13.125016,0.174966034 12.95005,0 12.6874813,0 L3.93747063,0 C3.6749874,0 3.50002136,0.174966034 3.50002136,0.437534714 L3.50002136,1.74996796 L1.31251869,1.74996796 C1.05001837,1.74996796 0.874983978,1.92501944 0.874983978,2.18750267 L0.874983978,7.8750267 L0.437534714,7.8750267 C0.174966034,7.8750267 0,8.04999274 0,8.31247597 L0,13.5625507 C0,13.825034 0.174966034,14 0.465493732,14 L13.5905098,14 C13.825034,14 14,13.825034 14,13.5064618 L14,8.25647248 C14,8.04999274 13.825034,7.8750267 13.5625507,7.8750267 L13.5625507,7.8750267 Z" id="Fill-1"></path>
                                <path d="M6.09379263,6.125 L10.9687249,6.125 C11.2125005,6.125 11.375,5.97185846 11.375,5.74216269 C11.375,5.51251654 11.2125005,5.359375 10.9687249,5.359375 L6.09379263,5.359375 C5.85001705,5.359375 5.6875,5.51251654 5.6875,5.74216269 C5.6875,5.97185846 5.85001705,6.125 6.09379263,6.125 M6.09379263,3.828125 L10.9687249,3.828125 C11.2125005,3.828125 11.375,3.67498346 11.375,3.44533731 C11.375,3.215625 11.2125005,3.0625 10.9687249,3.0625 L6.09379263,3.0625 C5.85001705,3.0625 5.6875,3.215625 5.6875,3.44533731 C5.6875,3.67498346 5.85001705,3.828125 6.09379263,3.828125" id="Fill-3"></path>
                            </g>
                        </g>
                    </g>
                </g>
            </g>
        </g>
    </g>
</svg>