<?xml version="1.0" encoding="UTF-8"?>
<svg width="14px" height="14px" viewBox="0 0 14 14" version="1.1" xmlns="http://www.w3.org/2000/svg" xmlns:xlink="http://www.w3.org/1999/xlink">
    <!-- Generator: Sketch 52.2 (67145) - http://www.bohemiancoding.com/sketch -->
    <title>数字沙盘icon</title>
    <desc>Created with Sketch.</desc>
    <g id="Page-1" stroke="none" stroke-width="1" fill="none" fill-rule="evenodd">
        <g id="warroom-上传完成" transform="translate(-24.000000, -308.000000)">
            <g id="侧导航">
                <g id="数字沙盘icon" transform="translate(24.000000, 308.000000)">
                    <rect id="矩形" x="0" y="0" width="14" height="14"></rect>
                    <g id="分组" transform="translate(0.000000, 1.103734)" fill="#FFFFFF">
                        <path d="M13.9874245,1.42612034 C13.9263514,1.16176975 13.6632608,0.997148333 13.39983,1.05845444 L10.8467544,1.65221864 C10.6748481,1.69217861 10.5376464,1.82170698 10.4876311,1.99162224 C10.4374457,2.16145212 10.4822723,2.34519968 10.6049288,2.47250805 L11.1621568,3.0510738 L8.18505712,5.71712114 L6.63917684,4.24748218 C6.44336874,4.06134385 6.13443085,4.06928461 5.94831959,4.2650714 L2.63183051,7.75593354 C2.22617941,7.67089052 1.81091653,7.85139347 1.59528945,8.20676399 C1.37957731,8.56204912 1.41019891,9.01518495 1.67158827,9.33810934 C1.93297762,9.66103372 2.3686549,9.78373133 2.75925038,9.6445545 C3.14984586,9.50537768 3.41080991,9.13446717 3.41089497,8.71830285 C3.41089497,8.61165754 3.3898001,8.51141608 3.35849802,8.41552922 L6.31994669,5.2983099 L7.8383526,6.74147964 C8.0231029,6.9169449 8.31103097,6.92121413 8.50088487,6.75129886 L11.8427218,3.75882637 L12.4777797,4.41901975 C12.6003512,4.54632812 12.7816991,4.59772962 12.9524145,4.55350042 C13.1232149,4.50918584 13.2570994,4.3761567 13.3028616,4.20521683 L13.9830013,1.66442863 C14.0040962,1.5866433 14.0055422,1.50475951 13.9874245,1.42612034" id="Fill-1"></path>
                        <path d="M13.2198806,5.93412095 C12.94949,5.93412095 12.7303026,6.15408341 12.7303026,6.42543018 L12.7303026,10.3185181 C12.7303026,10.5898649 12.5110302,10.8098273 12.2406396,10.8098273 L1.46890397,10.8098273 C1.19842831,10.8098273 0.979240961,10.5898649 0.979240961,10.3185181 L0.979240961,1.4740984 C0.979240961,1.20266627 1.19842831,0.982703814 1.46890397,0.982703814 L9.5883621,0.982703814 C9.8587527,0.982703814 10.0780251,0.76274136 10.0780251,0.491394585 C10.0780251,0.219962454 9.8587527,0 9.5883621,0 L1.46890397,0 C0.657647104,0 0,0.659887361 0,1.4740984 L0,10.3185181 C0,11.1326438 0.657647104,11.7925311 1.46890397,11.7925311 L12.2406396,11.7925311 C13.0518965,11.7925311 13.7095436,11.1326438 13.7095436,10.3185181 L13.7095436,6.42543018 C13.7095436,6.15408341 13.4903562,5.93412095 13.2198806,5.93412095" id="Fill-3"></path>
                    </g>
                </g>
            </g>
        </g>
    </g>
</svg>