<?xml version="1.0" encoding="UTF-8"?>
<svg width="14px" height="14px" viewBox="0 0 14 14" version="1.1" xmlns="http://www.w3.org/2000/svg" xmlns:xlink="http://www.w3.org/1999/xlink">
    <!-- Generator: Sketch 59.1 (86144) - https://sketch.com -->
    <title>总部区域销售报表icon</title>
    <desc>Created with Sketch.</desc>
    <g id="Page-2" stroke="none" stroke-width="1" fill="none" fill-rule="evenodd">
        <g id="00-01大众e线-首页" transform="translate(-24.000000, -146.000000)">
            <g id="侧边栏">
                <g id="编组-18" transform="translate(24.000000, 88.000000)">
                    <g id="编组-12" transform="translate(0.000000, 54.000000)">
                        <g id="总部区域销售报表icon" transform="translate(0.000000, 4.000000)">
                            <rect id="Rectangle-47-Copy" x="0" y="0" width="14" height="14"></rect>
                            <g id="Group-165" fill="#FFFFFF" fill-rule="nonzero">
                                <path d="M12.8748189,0.5 L1.12362056,0.5 C0.502508082,0.5 0,0.966614647 0,1.54336194 L0,12.4566381 C0,13.0333854 0.502508082,13.5 1.12362056,13.5 L12.8763794,13.5 C13.4974919,13.5 14,13.0333854 14,12.4566381 L14,1.54336194 C13.9984394,0.966614647 13.4943708,0.5 12.8748189,0.5 Z M12.8748189,12.4566381 L1.12362056,12.4566381 L1.12362056,1.54336194 L12.8748189,1.54336194 L12.8748189,12.4566381 Z" id="Shape"></path>
                                <g id="编组-6" transform="translate(3.360000, 3.208333)">
                                    <path d="M1.46106771,2.48197511 L1.46106771,6.87870197 C1.46106771,7.11453719 1.20018808,7.30533854 0.877734375,7.30533854 L0.877734375,7.30533854 C0.555280671,7.30533854 0.294401042,7.11453719 0.294401042,6.87870197 L0.294401042,2.48197511 C0.294401042,2.2461399 0.555280671,2.05533854 0.877734375,2.05533854 L0.877734375,2.05533854 C1.20018808,2.05533854 1.46106771,2.2461399 1.46106771,2.48197511 Z" id="Path"></path>
                                    <path d="M6.99940104,0.745129118 L6.99940104,6.86554797 C6.99940104,7.10865442 6.73852141,7.30533854 6.41606771,7.30533854 L6.41606771,7.30533854 C6.093614,7.30533854 5.83273438,7.10865442 5.83273438,6.86554797 L5.83273438,0.745129118 C5.83273438,0.50202266 6.093614,0.305338542 6.41606771,0.305338542 L6.41606771,0.305338542 C6.73852141,0.305338542 6.99940104,0.50202266 6.99940104,0.745129118 Z" id="Path"></path>
                                    <path d="M4.37773438,4.20281488 L4.37773438,6.9078622 C4.37773438,7.12757829 4.11685475,7.30533854 3.79440104,7.30533854 L3.79440104,7.30533854 C3.47194734,7.30533854 3.21106771,7.12757829 3.21106771,6.9078622 L3.21106771,4.20281488 C3.21106771,3.98309879 3.47194734,3.80533854 3.79440104,3.80533854 L3.79440104,3.80533854 C4.11523438,3.80533854 4.37773438,3.98309879 4.37773438,4.20281488 Z" id="Path"></path>
                                </g>
                            </g>
                        </g>
                    </g>
                </g>
            </g>
        </g>
    </g>
</svg>