<?xml version="1.0" encoding="UTF-8"?>
<svg width="55px" height="55px" viewBox="0 0 55 55" version="1.1" xmlns="http://www.w3.org/2000/svg" xmlns:xlink="http://www.w3.org/1999/xlink">
    <!-- Generator: Sketch 57.1 (83088) - https://sketch.com -->
    <title>Artboard</title>
    <desc>Created with Sketch.</desc>
    <g id="Page-1" stroke="none" stroke-width="1" fill="none" fill-rule="evenodd">
        <g id="Artboard" transform="translate(-150.000000, -372.000000)">
            <rect fill="#1E1E1E" x="0" y="0" width="375" height="812"></rect>
            <g id="Group-9" transform="translate(150.000000, 372.000000)" fill="#FFFFFF">
                <g id="Group-8">
                    <circle id="Oval" cx="2" cy="2" r="2"></circle>
                    <circle id="Oval" cx="2" cy="15" r="2"></circle>
                    <circle id="Oval" cx="2" cy="28" r="2"></circle>
                    <circle id="Oval" cx="2" cy="40" r="2"></circle>
                    <circle id="Oval" cx="2" cy="53" r="2"></circle>
                </g>
                <g id="Group-7" transform="translate(13.000000, 0.000000)">
                    <circle id="Oval" cx="2" cy="2" r="2"></circle>
                    <circle id="Oval" cx="2" cy="15" r="2"></circle>
                    <circle id="Oval" cx="2" cy="28" r="2"></circle>
                    <circle id="Oval" cx="2" cy="40" r="2"></circle>
                    <circle id="Oval" cx="2" cy="53" r="2"></circle>
                </g>
                <g id="Group-6" transform="translate(26.000000, 0.000000)">
                    <circle id="Oval" cx="2" cy="2" r="2"></circle>
                    <circle id="Oval" cx="2" cy="15" r="2"></circle>
                    <circle id="Oval" cx="2" cy="28" r="2"></circle>
                    <circle id="Oval" cx="2" cy="40" r="2"></circle>
                    <circle id="Oval" cx="2" cy="53" r="2"></circle>
                </g>
                <g id="Group-5" transform="translate(38.000000, 0.000000)">
                    <circle id="Oval" cx="2" cy="2" r="2"></circle>
                    <circle id="Oval" cx="2" cy="15" r="2"></circle>
                    <circle id="Oval" cx="2" cy="28" r="2"></circle>
                    <circle id="Oval" cx="2" cy="40" r="2"></circle>
                    <circle id="Oval" cx="2" cy="53" r="2"></circle>
                </g>
                <g id="Group-3" transform="translate(51.000000, 0.000000)">
                    <circle id="Oval" cx="2" cy="2" r="2"></circle>
                    <circle id="Oval" cx="2" cy="15" r="2"></circle>
                    <circle id="Oval" cx="2" cy="28" r="2"></circle>
                    <circle id="Oval" cx="2" cy="40" r="2"></circle>
                    <circle id="Oval" cx="2" cy="53" r="2"></circle>
                </g>
            </g>
        </g>
    </g>
</svg>